<svg width="85" height="85" viewBox="0 0 85 85" fill="none" xmlns="http://www.w3.org/2000/svg">
<rect width="84.9999" height="84.9999" rx="17" fill="white"/>
<path d="M24.0225 40.8137L40.8138 24.0225C43.4897 21.3525 47.1155 19.853 50.8957 19.853C54.6758 19.853 58.3016 21.3525 60.9775 24.0225C66.535 29.58 66.535 38.605 60.9775 44.1862L44.1863 60.9775C38.605 66.535 29.58 66.535 24.0225 60.9775C21.3525 58.3015 19.853 54.6757 19.853 50.8956C19.853 47.1154 21.3525 43.4897 24.0225 40.8137ZM27.395 44.1862C26.2113 45.3606 25.3593 46.8273 24.9255 48.4374C24.4917 50.0474 24.4916 51.7436 24.925 53.3537L39.1513 39.1512L49.2213 49.2212L57.605 40.8137C58.4904 39.9351 59.1932 38.8898 59.6727 37.7383C60.1523 36.5868 60.3991 35.3517 60.3991 34.1043C60.3991 32.857 60.1523 31.6219 59.6727 30.4704C59.1932 29.3189 58.4904 28.2736 57.605 27.395C56.7264 26.5096 55.6811 25.8068 54.5296 25.3273C53.3781 24.8477 52.143 24.6009 50.8957 24.6009C49.6483 24.6009 48.4132 24.8477 47.2617 25.3273C46.1102 25.8068 45.0649 26.5096 44.1863 27.395L27.395 44.1862Z" fill="#6E6E6E"/>
</svg>
