<svg width="85" height="85" viewBox="0 0 85 85" fill="none" xmlns="http://www.w3.org/2000/svg">
<rect width="84.9999" height="84.9999" rx="17" fill="white"/>
<path fill-rule="evenodd" clip-rule="evenodd" d="M55.8154 20.6391L64.3607 29.1844C64.8009 29.6402 65.0445 30.2507 65.039 30.8843C65.0335 31.5179 64.7794 32.1241 64.3313 32.5721C63.8832 33.0202 63.2771 33.2744 62.6434 33.2799C62.0098 33.2854 61.3993 33.0418 60.9436 32.6016L57.524 36.0188L61.7942 40.2914C62.025 40.5144 62.2091 40.781 62.3358 41.0759C62.4625 41.3707 62.5291 41.6878 62.5319 42.0087C62.5347 42.3296 62.4736 42.6478 62.352 42.9448C62.2305 43.2418 62.0511 43.5116 61.8242 43.7385C61.5973 43.9654 61.3274 44.1449 61.0304 44.2664C60.7334 44.3879 60.4152 44.4491 60.0943 44.4463C59.7734 44.4435 59.4563 44.3768 59.1615 44.2502C58.8666 44.1235 58.6 43.9394 58.3771 43.7086L56.6709 42L42.9998 55.6711C41.6402 57.0303 39.7965 57.7938 37.874 57.7938C35.9516 57.7938 34.1079 57.0303 32.7483 55.6711L25.2035 63.2135C24.7477 63.6537 24.1372 63.8973 23.5036 63.8918C22.8699 63.8863 22.2638 63.6321 21.8157 63.1841C21.3677 62.736 21.1135 62.1299 21.108 61.4962C21.1025 60.8626 21.3461 60.2521 21.7863 59.7963L29.3287 52.2539C28.6554 51.5807 28.1212 50.7814 27.7568 49.9017C27.3924 49.022 27.2048 48.0791 27.2048 47.127C27.2048 46.1748 27.3924 45.2319 27.7568 44.3522C28.1212 43.4725 28.6554 42.6732 29.3287 42L42.9998 28.3289L41.2912 26.6203C41.0604 26.3974 40.8763 26.1307 40.7496 25.8359C40.623 25.5411 40.5563 25.2239 40.5535 24.9031C40.5507 24.5822 40.6119 24.2639 40.7334 23.9669C40.8549 23.6699 41.0344 23.4001 41.2613 23.1732C41.4882 22.9463 41.758 22.7669 42.055 22.6454C42.352 22.5238 42.6702 22.4627 42.9911 22.4655C43.312 22.4683 43.6291 22.5349 43.9239 22.6616C44.2188 22.7882 44.4855 22.9724 44.7084 23.2032L48.9811 27.4734L52.3982 24.0563C52.1674 23.8333 51.9833 23.5667 51.8566 23.2718C51.73 22.977 51.6633 22.6599 51.6605 22.339C51.6577 22.0181 51.7189 21.6999 51.8404 21.4029C51.9619 21.1059 52.1414 20.836 52.3683 20.6091C52.5952 20.3822 52.865 20.2028 53.162 20.0813C53.459 19.9598 53.7772 19.8986 54.0981 19.9014C54.419 19.9042 54.7361 19.9709 55.0309 20.0975C55.3258 20.2242 55.5925 20.4083 55.8154 20.6391ZM46.417 31.7461L42.9998 35.1657L44.7084 36.8718C44.9329 37.0962 45.1111 37.3626 45.2326 37.6558C45.3542 37.9491 45.4168 38.2633 45.417 38.5808C45.4171 38.8982 45.3547 39.2125 45.2333 39.5058C45.1119 39.7992 44.934 40.0657 44.7096 40.2902C44.4852 40.5147 44.2188 40.6929 43.9256 40.8145C43.6324 40.936 43.3181 40.9987 43.0007 40.9988C42.6832 40.9989 42.3689 40.9365 42.0756 40.8151C41.7823 40.6937 41.5158 40.5158 41.2912 40.2914L39.5826 38.5828L37.874 40.2914L39.5826 42C39.8135 42.2229 39.9976 42.4896 40.1242 42.7844C40.2509 43.0793 40.3175 43.3964 40.3203 43.7173C40.3231 44.0382 40.262 44.3564 40.1405 44.6534C40.0189 44.9504 39.8395 45.2202 39.6126 45.4471C39.3857 45.674 39.1159 45.8535 38.8189 45.975C38.5219 46.0965 38.2036 46.1576 37.8827 46.1549C37.5619 46.1521 37.2447 46.0854 36.9499 45.9587C36.6551 45.8321 36.3884 45.648 36.1655 45.4172L34.4569 43.7086L32.7483 45.4172C32.5236 45.6416 32.3454 45.9081 32.2237 46.2015C32.1021 46.4949 32.0395 46.8094 32.0395 47.127C32.0395 47.4445 32.1021 47.759 32.2237 48.0524C32.3454 48.3458 32.5236 48.6123 32.7483 48.8368L36.1655 52.2539C36.6187 52.707 37.2332 52.9615 37.874 52.9615C38.5149 52.9615 39.1294 52.707 39.5826 52.2539L53.2537 38.5828L46.417 31.7461ZM55.8178 27.4734L52.3982 30.893L54.1068 32.6016L57.5264 29.1844L55.8178 27.4734Z" fill="#6E6E6E"/>
</svg>
