<svg width="85" height="85" viewBox="0 0 85 85" fill="none" xmlns="http://www.w3.org/2000/svg">
<rect width="84.9999" height="84.9999" rx="17" fill="white"/>
<path d="M43.65 17.7855C43.5078 17.6195 43.3314 17.4862 43.1329 17.3948C42.9344 17.3035 42.7185 17.2562 42.4999 17.2562C42.2814 17.2562 42.0654 17.3035 41.8669 17.3948C41.6684 17.4862 41.492 17.6195 41.3499 17.7855C37.3553 22.4576 24.3306 38.6101 24.3306 50.575C24.3306 61.7248 31.3508 68.7437 42.4993 68.7437C53.6478 68.7437 60.668 61.7248 60.668 50.575C60.668 38.6101 47.6433 22.4576 43.65 17.7855ZM44.518 62.1828C44.2755 62.1833 44.0365 62.1256 43.8209 62.0145C43.6054 61.9033 43.4197 61.7421 43.2794 61.5442C43.1392 61.3464 43.0486 61.1177 43.0151 60.8776C42.9817 60.6374 43.0064 60.3927 43.0872 60.164C43.1905 59.8657 43.3852 59.6076 43.6437 59.4263C43.9022 59.2451 44.2112 59.15 44.5269 59.1547C46.531 59.1503 48.4517 58.3523 49.8688 56.9352C51.286 55.5181 52.084 53.5973 52.0883 51.5932C52.0837 51.2775 52.1788 50.9685 52.36 50.71C52.5412 50.4515 52.7994 50.2568 53.0977 50.1536C53.3263 50.0727 53.571 50.048 53.8112 50.0814C54.0514 50.1149 54.28 50.2055 54.4779 50.3458C54.6757 50.486 54.837 50.6717 54.9481 50.8872C55.0593 51.1028 55.117 51.3419 55.1165 51.5844C55.1135 54.3943 53.9959 57.0883 52.0089 59.0753C50.022 61.0622 47.328 62.1798 44.518 62.1828Z" fill="#6E6E6E"/>
</svg>
