<svg width="85" height="85" viewBox="0 0 85 85" fill="none" xmlns="http://www.w3.org/2000/svg">
<rect width="84.9999" height="84.9999" rx="17" fill="white"/>
<path d="M43.0099 21.9444C41.5215 21.9657 40.2368 22.7746 38.8031 23.8709C31.1554 29.7168 21.7612 37.8229 19.1334 43.508C18.1453 42.2078 14.7028 42.495 14.7028 44.2941C14.7028 45.8376 17.0981 46.2647 18.467 45.6042C18.3937 46.116 18.405 46.5939 18.5081 47.0361C17.7495 47.2585 17.1641 47.7441 17.1641 48.4863C17.1641 50.1116 19.8198 50.5028 21.1367 49.686C21.7508 50.0204 22.3794 50.3282 23.0205 50.6085C22.9228 50.7871 22.8716 50.9908 22.8716 51.2174C22.8716 52.5892 24.7621 53.0793 26.1444 52.7085C26.127 52.7924 26.1182 52.8823 26.1182 52.9742C26.1182 55.1347 30.813 55.1153 30.813 52.9742C30.813 52.9569 30.8099 52.9396 30.8094 52.9226C32.5102 53.2455 34.2782 53.4869 36.085 53.6495C36.4428 55.3406 39.9758 55.4103 40.6421 53.8931C42.433 53.9274 44.2358 53.8931 46.022 53.7898C46.0058 53.8716 45.9922 53.9587 45.9922 54.0481C45.9922 55.7215 48.8103 56.0855 50.0803 55.17C51.4755 57.2225 56.7522 56.8351 56.7522 54.0628C56.7522 53.7907 56.7037 53.5423 56.6107 53.3173C57.7502 53.8492 59.2997 53.9343 60.5721 53.572C60.8625 55.5215 65.2522 55.4318 65.2522 53.3615C65.2522 52.2478 63.9841 51.7285 62.765 51.7783C62.8337 51.5663 62.8729 51.3375 62.8729 51.0921C62.8729 50.8736 62.8419 50.6705 62.7871 50.4792C63.3927 50.2437 63.9759 49.995 64.5335 49.7376C65.9918 49.0638 66.6292 47.9746 66.6407 46.6006C68.0148 47.2348 70.3714 46.7855 70.3714 45.2685C70.3714 43.5612 67.3853 43.241 66.1753 44.2461C63.9652 38.1476 54.3515 29.0172 47.0198 23.5571C45.4499 22.388 44.1676 21.9279 43.0099 21.9444ZM69.1058 49.2357C67.9317 49.2407 66.7563 49.7762 66.7563 50.8264C66.7563 52.9867 71.4513 52.9675 71.4513 50.8264C71.4513 49.7558 70.2798 49.2306 69.1058 49.2357ZM16.1663 50.6012C14.9923 50.6063 13.8169 51.1416 13.8169 52.1917C13.8169 54.3524 18.5117 54.3328 18.5117 52.1917C18.5117 51.1213 17.3402 50.5961 16.1663 50.6012ZM42.8312 55.3803C41.6574 55.3855 40.4821 55.9209 40.4821 56.9711C40.4821 59.1315 45.1807 59.1121 45.1807 56.9711C45.1807 55.9005 44.0052 55.3753 42.8312 55.3803ZM58.9675 56.9379C57.7935 56.9428 56.618 57.4782 56.618 58.5283C56.618 60.6888 61.3167 60.6693 61.3167 58.5283C61.3167 57.4578 60.1415 56.9329 58.9675 56.9379ZM23.2516 56.1952C21.9053 56.2009 20.556 56.8141 20.556 58.0182C20.556 60.4956 25.9435 60.4734 25.9435 58.0182C25.9435 56.7907 24.5977 56.1893 23.2516 56.1952ZM30.9248 58.0474C29.5785 58.0533 28.2329 58.6663 28.2329 59.8706C28.2329 62.348 33.6166 62.3258 33.6166 59.8706C33.6166 58.643 32.2708 58.0417 30.9248 58.0474Z" fill="#6E6E6E"/>
</svg>
