<svg width="85" height="85" viewBox="0 0 85 85" fill="none" xmlns="http://www.w3.org/2000/svg">
<rect width="84.9999" height="84.9999" rx="17" fill="white"/>
<g clip-path="url(#clip0_380_557)">
<path d="M68.6708 41.1914C68.1996 41.9012 67.2027 41.9551 66.5955 41.3531L48.4524 23.3664C47.8452 22.7645 47.8905 21.7672 48.6155 21.309C50.8902 19.8445 53.5908 19 56.4999 19C64.5111 19 70.9999 25.4328 70.9999 33.375C70.9999 36.259 70.148 38.9363 68.6708 41.1914ZM64.3843 45.441C62.1186 46.9055 59.4089 47.75 56.4999 47.75C48.4886 47.75 41.9999 41.3172 41.9999 33.375C41.9999 30.491 42.8518 27.8137 44.3289 25.5586C44.8002 24.8488 45.7971 24.7949 46.4043 25.3969L64.5474 43.3836C65.1546 43.9855 65.1093 44.9828 64.3843 45.441ZM40.3233 52.0625C41.1843 52.0625 41.8549 52.7992 41.6827 53.6348C40.2871 60.1305 34.4689 65 27.4999 65C20.5308 65 14.7127 60.1305 13.3171 53.6348C13.1358 52.7992 13.8155 52.0625 14.6764 52.0625H40.3324H40.3233ZM40.3233 49.1875H14.6764C13.8155 49.1875 13.1449 48.4508 13.3171 47.6152C14.7127 41.1195 20.5308 36.25 27.4999 36.25C34.4689 36.25 40.2871 41.1195 41.6827 47.6152C41.8639 48.4508 41.1843 49.1875 40.3233 49.1875Z" fill="#6E6E6E"/>
</g>
<defs>
<clipPath id="clip0_380_557">
<rect width="58" height="46" fill="white" transform="translate(13 19)"/>
</clipPath>
</defs>
</svg>
